<svg xmlns="http://www.w3.org/2000/svg" width="128" zoomAndPan="magnify" viewBox="0 0 96 96" height="128" preserveAspectRatio="xMidYMid meet" xmlns:v="https://vecta.io/nano"><style><![CDATA[.B{clip-rule:nonzero}.C{fill:#ff6b5a}]]></style><defs><clipPath id="A"><path d="M22.5 0h51A22.5 22.5 0 0 1 96 22.5v51C96 85.926 85.926 96 73.5 96h-51C10.074 96 0 85.926 0 73.5v-51C0 10.074 10.074 0 22.5 0zm0 0" class="B"/></clipPath><clipPath id="B"><path d="M0 0h96v96H0zm0 0" class="B"/></clipPath><clipPath id="C"><path d="M22.5 0h51A22.5 22.5 0 0 1 96 22.5v51C96 85.926 85.926 96 73.5 96h-51C10.074 96 0 85.926 0 73.5v-51C0 10.074 10.074 0 22.5 0zm0 0" class="B"/></clipPath><clipPath id="D"><path d="M0 0h96v96H0z"/></clipPath><clipPath id="E"><path d="M14 21h64v64H14zm0 0" class="B"/></clipPath><clipPath id="F"><path d="M57.813 7.41l32.879 32.879-48.258 48.262L9.551 55.672zm0 0" class="B"/></clipPath><clipPath id="G"><path d="M57.813 7.41l32.879 32.879-48.258 48.262L9.551 55.672zm0 0" class="B"/></clipPath><clipPath id="H"><path d="M16 42h40v41H16zm0 0" class="B"/></clipPath><clipPath id="I"><path d="M57.813 7.41l32.879 32.879-48.258 48.262L9.551 55.672zm0 0" class="B"/></clipPath><clipPath id="J"><path d="M57.813 7.41l32.879 32.879-48.258 48.262L9.551 55.672zm0 0" class="B"/></clipPath><clipPath id="K"><path d="M61 16h22v21H61zm0 0" class="B"/></clipPath><clipPath id="L"><path d="M57.813 7.41l32.879 32.879-48.258 48.262L9.551 55.672zm0 0" class="B"/></clipPath><clipPath id="M"><path d="M57.813 7.41l32.879 32.879-48.258 48.262L9.551 55.672zm0 0" class="B"/></clipPath><clipPath id="N"><path d="M22 39h27v13H22zm0 0" class="B"/></clipPath><clipPath id="O"><path d="M57.813 7.41l32.879 32.879-48.258 48.262L9.551 55.672zm0 0" class="B"/></clipPath><clipPath id="P"><path d="M57.813 7.41l32.879 32.879-48.258 48.262L9.551 55.672zm0 0" class="B"/></clipPath><clipPath id="Q"><path d="M51 48h8v8h-8zm0 0" class="B"/></clipPath><clipPath id="R"><path d="M57.813 7.41l32.879 32.879-48.258 48.262L9.551 55.672zm0 0" class="B"/></clipPath><clipPath id="S"><path d="M57.813 7.41l32.879 32.879-48.258 48.262L9.551 55.672zm0 0" class="B"/></clipPath><clipPath id="T"><path d="M46 45h3v3h-3zm0 0" class="B"/></clipPath><clipPath id="U"><path d="M57.813 7.41l32.879 32.879-48.258 48.262L9.551 55.672zm0 0" class="B"/></clipPath><clipPath id="V"><path d="M57.813 7.41l32.879 32.879-48.258 48.262L9.551 55.672zm0 0" class="B"/></clipPath><clipPath id="W"><path d="M54 39h5v5h-5zm0 0" class="B"/></clipPath><clipPath id="X"><path d="M57.813 7.41l32.879 32.879-48.258 48.262L9.551 55.672zm0 0" class="B"/></clipPath><clipPath id="Y"><path d="M57.813 7.41l32.879 32.879-48.258 48.262L9.551 55.672zm0 0" class="B"/></clipPath><clipPath id="Z"><path d="M42 48h2v3h-2zm0 0" class="B"/></clipPath><clipPath id="a"><path d="M57.813 7.41l32.879 32.879-48.258 48.262L9.551 55.672zm0 0" class="B"/></clipPath><clipPath id="b"><path d="M57.813 7.41l32.879 32.879-48.258 48.262L9.551 55.672zm0 0" class="B"/></clipPath></defs><g clip-path="url(#A)"><g clip-path="url(#D)"><g clip-path="url(#B)"><g clip-path="url(#C)"><path fill="#1a3a3a" d="M-21.12-21.12h138.24v138.24H-21.12z"/></g></g></g></g><g clip-path="url(#E)"><g clip-path="url(#F)"><g clip-path="url(#G)"><path fill="#fff" d="M53.676 76.168l9.016-27.336a7.23 7.23 0 0 1 1.801-2.891l12.516-12.328-5.672-6.285c-.004-.008-.004-.016.004-.023s.004-.016 0-.023l-.437-.434c-.004-.008-.016-.008-.023 0L64.93 21.5c-.199-.18-.516-.16-.719.043L52.242 33.695a7.26 7.26 0 0 1-2.887 1.801l-27.34 9.012c-.754.25-1.473.629-2.113 1.121-2.012 1.535-6.086 5.137-5.895 8.988.117 2.281.41 3.887.703 4.965a6.08 6.08 0 0 0 1.57 2.711l19.613 19.613c.746.746 1.676 1.285 2.711 1.566 1.078.293 2.68.59 4.961.703 3.855.195 7.457-3.879 8.992-5.895.488-.641.867-1.355 1.117-2.113zm0 0"/></g></g></g><g clip-path="url(#H)" class="C"><g clip-path="url(#I)"><g clip-path="url(#J)"><path d="M42.984 82.332c-2.059-.102-3.508-.371-4.48-.637a5.49 5.49 0 0 1-2.445-1.414L18.352 62.574a5.49 5.49 0 0 1-1.414-2.445c-.266-.973-.531-2.422-.637-4.48-.176-3.48 3.504-6.73 5.32-8.117.582-.441 1.227-.781 1.91-1.008l11.344-3.742c2.469 2.531 2.75 6.84 4.895 9.82.367.508.801.984 1.359 1.258 1.18.578 2.582.133 3.883.281 1.844.211 3.34 1.605 4.387 3.137s1.785 3.266 2.934 4.723c.871 1.105 1.98 2.004 3.223 2.664l-3.445 10.438a6.45 6.45 0 0 1-1.008 1.91c-1.387 1.816-4.637 5.496-8.117 5.32zm0 0"/></g></g></g><g clip-path="url(#K)"><g clip-path="url(#L)"><g clip-path="url(#M)"><path fill="#fff" d="M67.523 17.133l14.152 14.148c.305.305.543.66.707 1.063a3.22 3.22 0 0 1 .25 1.254 3.22 3.22 0 0 1-.25 1.254c-.164.398-.402.754-.707 1.063s-.664.543-1.066.711a3.26 3.26 0 0 1-1.254.246c-.434 0-.852-.082-1.25-.246s-.758-.406-1.066-.711L62.891 21.766c-.305-.309-.543-.664-.707-1.062a3.22 3.22 0 0 1-.25-1.254c0-.437.082-.855.25-1.254s.402-.758.707-1.062.664-.547 1.063-.711a3.22 3.22 0 0 1 1.254-.25c.438 0 .855.082 1.254.25s.758.402 1.063.711zm0 0"/></g></g></g><g clip-path="url(#N)"><g clip-path="url(#O)"><g clip-path="url(#P)"><path fill="#ffb084" d="M23.266 48.602c.395-.172 24.055-9.969 24.785-8.871S28.754 50.707 25.094 50.98s-2.973-1.875-1.828-2.379zm0 0"/></g></g></g><g clip-path="url(#Q)" class="C"><g clip-path="url(#R)"><g clip-path="url(#S)"><path d="M57.094 54.688c-.332.328-.715.586-1.148.766a3.49 3.49 0 0 1-1.352.27 3.51 3.51 0 0 1-1.355-.27c-.434-.18-.816-.437-1.145-.766s-.59-.715-.77-1.148-.27-.883-.27-1.355a3.49 3.49 0 0 1 .27-1.352c.18-.434.438-.816.77-1.148s.711-.586 1.145-.766a3.51 3.51 0 0 1 1.355-.27 3.49 3.49 0 0 1 1.352.27c.434.18.816.438 1.148.766s.586.715.766 1.148a3.49 3.49 0 0 1 .27 1.352c0 .473-.09.922-.27 1.355s-.434.816-.766 1.148zm0 0"/></g></g></g><g clip-path="url(#T)" class="C"><g clip-path="url(#U)"><g clip-path="url(#V)"><path d="M48.16 47.031c-.102.102-.219.18-.352.234a1.07 1.07 0 0 1-.824 0c-.133-.055-.25-.133-.352-.234a1.06 1.06 0 0 1-.23-.348 1.07 1.07 0 0 1-.082-.414c0-.141.027-.281.082-.41a1.12 1.12 0 0 1 .23-.352c.102-.102.219-.18.352-.234a1.07 1.07 0 0 1 .824 0c.133.055.25.133.352.234s.18.219.234.352.082.27.082.41a1.07 1.07 0 0 1-.082.414 1.01 1.01 0 0 1-.234.348zm0 0"/></g></g></g><g clip-path="url(#W)" class="C"><g clip-path="url(#X)"><g clip-path="url(#Y)"><path d="M58.129 42.918a2.04 2.04 0 0 1-1.465.605c-.273 0-.535-.055-.789-.16a2 2 0 0 1-.672-.445 2.05 2.05 0 0 1-.605-1.465 2.05 2.05 0 0 1 .605-1.465 2.07 2.07 0 0 1 .672-.449c.254-.102.516-.156.789-.156a2.11 2.11 0 0 1 .793.156c.254.105.477.258.672.449a2.05 2.05 0 0 1 .605 1.465 2.05 2.05 0 0 1-.605 1.465zm0 0"/></g></g></g><g clip-path="url(#Z)" class="C"><g clip-path="url(#a)"><g clip-path="url(#b)"><path d="M43.707 50.629c-.094.094-.199.168-.32.215a.98.98 0 0 1-.379.078 1 1 0 0 1-.383-.078c-.121-.047-.227-.121-.32-.215s-.164-.199-.215-.32-.074-.246-.074-.379.023-.258.074-.379a1 1 0 0 1 .215-.324 1.05 1.05 0 0 1 .32-.215c.125-.051.25-.074.383-.074s.258.023.379.074a1.05 1.05 0 0 1 .32.215 1 1 0 0 1 .215.324c.051.121.074.246.074.379s-.023.258-.074.379-.121.23-.215.32zm0 0"/></g></g></g></svg>